<svg xmlns="http://www.w3.org/2000/svg" xmlns:xlink="http://www.w3.org/1999/xlink" width="199.978" height="43.937" viewBox="0 0 199.978 43.937">
  <defs>
    <clipPath id="clip-path">
      <path id="Logo" d="M56.659,56.672v0ZM33.6,24.693v31.98h6.382V43.839h9.539V37.457H39.982V31.075H52.816V24.693Zm23.059,0v31.98H73.335V50.291H63.041v-25.6Zm27.176,0L80.473,35.6,77.11,24.693H70.384l6.863,22.1v9.951h6.382V46.791l6.931-22.1ZM93.992,56.742h6.382V24.693H93.992Zm22.922-32.049v15.1l-5.078-15.1h-7.686V56.742h6.382V40.889l5.422,15.853H123.3V24.693Zm52.637,0-5.559,11.255V24.693H157.61l.069,32.048h6.382V50.29l2.54-5.009,4.049,11.46h6.794L170.512,37.32l6.245-12.627Zm11.118,32.049h6.383V24.693h-6.383Zm28-32.049c-3.225,0-5.284,1.646-5.627,3.98-.206,1.51-3.294,18.6-3.294,18.6L195.7,24.693h-6.52l2.2,12.216,2.676,14.961c.48,2.471,1.441,4.873,4.6,4.873h5.9l2.471-13.863,1.716,8.99c.48,2.333,1.441,4.873,4.6,4.873h3.088l-6.108-32.049ZM218,56.742h6.382V24.693H218ZM136.678,23.8a9.578,9.578,0,0,0-9.471,9.676l.069,14.412v.138a9.574,9.574,0,1,0,19.147-.206V37.457h-9.608V43.84h3.157v3.98a3.157,3.157,0,0,1-6.314,0V33.408a3.157,3.157,0,0,1,6.314,0v.824h6.382v-.961a9.578,9.578,0,0,0-9.549-9.471h-.127m92.51-2.676h.618a1.741,1.741,0,0,1,.824.137.516.516,0,0,1,.275.618.6.6,0,0,1-.412.618,2.357,2.357,0,0,1-.686.068h-.618Zm-.686-.549v3.911h.686V22.908h.549a1.471,1.471,0,0,1,.755.138.892.892,0,0,1,.343.891v.618h.686v-.823a1.107,1.107,0,0,0-.206-.618.755.755,0,0,0-.686-.412,1.794,1.794,0,0,0,.549-.206.788.788,0,0,0,.412-.755,1,1,0,0,0-.618-1.029,3.022,3.022,0,0,0-1.1-.137Zm-.755,4.187a3.178,3.178,0,0,1-.892-2.2,2.9,2.9,0,0,1,.892-2.2,3.175,3.175,0,0,1,2.2-.892,2.673,2.673,0,0,1,2.2.892,2.849,2.849,0,0,1,.892,2.2,2.9,2.9,0,0,1-.892,2.2,3.177,3.177,0,0,1-2.2.891c-.069.006-.139.009-.209.009a2.686,2.686,0,0,1-1.987-.9m-.343-4.736a3.641,3.641,0,0,0-1.029,2.539A3.523,3.523,0,0,0,227.4,25.1a3.415,3.415,0,0,0,2.539,1.03,3.268,3.268,0,0,0,2.539-1.03,3.414,3.414,0,0,0,1.029-2.539,3.268,3.268,0,0,0-1.029-2.539A3.524,3.524,0,0,0,229.943,19c-.07,0-.139-.008-.208-.008a3.312,3.312,0,0,0-2.331,1.037" transform="translate(-33.6 -18.989)" fill="#ad2727"/>
    </clipPath>
    <linearGradient id="linear-gradient" y1="1" x2="1" gradientUnits="objectBoundingBox">
      <stop offset="0" stop-color="#770971"/>
      <stop offset="0.65" stop-color="#fe4317"/>
      <stop offset="1" stop-color="#fe4317"/>
    </linearGradient>
  </defs>
  <g id="Logo-2" data-name="Logo" transform="translate(-650 -412.032)">
    <rect id="Spacer" width="199.137" height="43.937" transform="translate(650 412.032)" fill="#f0f" opacity="0"/>
    <g id="Gradient_logo" data-name="Gradient logo" transform="translate(650.059 412.032)" clip-path="url(#clip-path)">
      <rect id="Gradient" width="201.078" height="39.804" transform="translate(-1.098 -0.679)" fill="url(#linear-gradient)"/>
    </g>
  </g>
</svg>
